<svg width="48" height="37" viewBox="0 0 48 37" fill="none" xmlns="http://www.w3.org/2000/svg">
<path d="M40.6606 3.09874C37.5534 1.65112 34.2312 0.599057 30.7578 0C30.3312 0.767969 29.8329 1.80091 29.4893 2.6226C25.797 2.06967 22.1387 2.06967 18.5143 2.6226C18.1708 1.80091 17.6611 0.767969 17.2307 0C13.7536 0.599057 10.4275 1.65499 7.32039 3.10641C1.05329 12.5369 -0.645622 21.7331 0.203833 30.7988C4.3605 33.8898 8.38882 35.7675 12.3492 36.9962C13.327 35.6561 14.1991 34.2315 14.9504 32.7302C13.5195 32.1888 12.1491 31.5207 10.8541 30.7451C11.1977 30.4916 11.5337 30.2267 11.8584 29.954C19.7564 33.6326 28.3378 33.6326 36.1415 29.954C36.4699 30.2267 36.8059 30.4916 37.1457 30.7451C35.847 31.5245 34.4728 32.1926 33.0419 32.7341C33.7932 34.2315 34.6615 35.66 35.6431 37C39.6073 35.7713 43.6393 33.8937 47.796 30.7988C48.7927 20.2894 46.0933 11.1776 40.6606 3.09874ZM16.0264 25.2235C13.6554 25.2235 11.7111 23.0194 11.7111 20.3354C11.7111 17.6514 13.6139 15.4436 16.0264 15.4436C18.4388 15.4436 20.3831 17.6476 20.3416 20.3354C20.3454 23.0194 18.4388 25.2235 16.0264 25.2235ZM31.9735 25.2235C29.6026 25.2235 27.6582 23.0194 27.6582 20.3354C27.6582 17.6514 29.561 15.4436 31.9735 15.4436C34.3859 15.4436 36.3303 17.6476 36.2887 20.3354C36.2887 23.0194 34.3859 25.2235 31.9735 25.2235Z" fill="white"/>
</svg>
