<svg width="42" height="42" viewBox="0 0 42 42" fill="none" xmlns="http://www.w3.org/2000/svg">
<path d="M30.45 0H11.55C8.48675 0 5.54896 1.21687 3.38292 3.38292C1.21687 5.54896 0 8.48675 0 11.55V30.45C0 33.5132 1.21687 36.451 3.38292 38.6171C5.54896 40.7831 8.48675 42 11.55 42H30.45C33.5132 42 36.451 40.7831 38.6171 38.6171C40.7831 36.451 42 33.5132 42 30.45V11.55C42 8.48675 40.7831 5.54896 38.6171 3.38292C36.451 1.21687 33.5132 0 30.45 0ZM38.325 28.791C38.325 31.3196 37.3205 33.7446 35.5326 35.5326C33.7446 37.3205 31.3196 38.325 28.791 38.325H13.209C10.6804 38.325 8.25541 37.3205 6.46744 35.5326C4.67947 33.7446 3.675 31.3196 3.675 28.791V13.209C3.675 10.6804 4.67947 8.25541 6.46744 6.46744C8.25541 4.67947 10.6804 3.675 13.209 3.675H28.791C31.3196 3.675 33.7446 4.67947 35.5326 6.46744C37.3205 8.25541 38.325 10.6804 38.325 13.209V28.791Z" fill="white"/>
<path d="M28.6603 13.4182L28.5606 13.3185L28.4766 13.2345C26.4915 11.2563 23.803 10.1461 21.0006 10.1475C19.5854 10.1571 18.186 10.4454 16.8823 10.9961C15.5785 11.5467 14.3961 12.3488 13.4025 13.3566C12.4089 14.3643 11.6236 15.558 11.0914 16.8693C10.5593 18.1807 10.2907 19.584 10.3011 20.9992C10.2989 23.8712 11.431 26.6279 13.4511 28.6694C14.4405 29.6709 15.6196 30.4653 16.9194 31.0061C18.2192 31.547 19.6137 31.8234 21.0216 31.8194C23.1333 31.7752 25.1865 31.1173 26.9308 29.9262C28.6751 28.735 30.0351 27.062 30.8449 25.1112C31.6548 23.1604 31.8794 21.0161 31.4915 18.9398C31.1036 16.8636 30.1199 14.945 28.6603 13.4182V13.4182ZM21.0006 28.1182C19.5885 28.138 18.2024 27.7373 17.0187 26.9672C15.8349 26.1971 14.9069 25.0923 14.3528 23.7933C13.7986 22.4944 13.6433 21.06 13.9067 19.6725C14.17 18.2851 14.84 17.0073 15.8315 16.0017C16.8231 14.996 18.0913 14.308 19.4749 14.0252C20.8585 13.7423 22.2949 13.8773 23.6016 14.4131C24.9082 14.9489 26.026 15.8612 26.8128 17.0339C27.5995 18.2067 28.0197 19.587 28.0198 20.9992C28.0267 21.9276 27.8506 22.8483 27.5015 23.7087C27.1525 24.569 26.6373 25.3521 25.9854 26.0132C25.3335 26.6744 24.5578 27.2006 23.7024 27.5618C22.8471 27.9229 21.929 28.112 21.0006 28.1182V28.1182Z" fill="white"/>
<path d="M34.8757 9.64915C34.8785 9.98604 34.8147 10.3202 34.6882 10.6324C34.5617 10.9446 34.3748 11.2289 34.1383 11.4688C33.9018 11.7087 33.6203 11.8996 33.3099 12.0306C32.9995 12.1616 32.6663 12.2301 32.3294 12.2321C31.9954 12.232 31.6647 12.1656 31.3564 12.0367C31.0482 11.9078 30.7687 11.7191 30.5339 11.4814C30.1783 11.1205 29.9363 10.6632 29.8381 10.1661C29.7399 9.66907 29.7898 9.15411 29.9815 8.68511C30.1733 8.21612 30.4985 7.81371 30.9168 7.52779C31.335 7.24187 31.8281 7.08501 32.3347 7.07666C32.9276 7.07655 33.5018 7.28465 33.9569 7.66466L34.0094 7.71716C34.0941 7.78608 34.1715 7.86348 34.2404 7.94816L34.2982 8.01116C34.674 8.47413 34.878 9.05286 34.8757 9.64915V9.64915Z" fill="white"/>
</svg>
