<svg width="42" height="34" viewBox="0 0 42 34" fill="none" xmlns="http://www.w3.org/2000/svg">
<path d="M20.3934 9.04453L20.4844 10.5151L18.9671 10.3351C13.4439 9.64478 8.61864 7.30383 4.52175 3.37223L2.51883 1.42144L2.00292 2.86203C0.910419 6.07333 1.60841 9.4647 3.88446 11.7456C5.09835 13.0061 4.82522 13.1862 2.73126 12.4359C2.00292 12.1958 1.36563 12.0157 1.30493 12.1058C1.0925 12.3159 1.82084 15.047 2.39744 16.1274C3.18647 17.628 4.79488 19.0986 6.55502 19.969L8.04204 20.6592L6.28189 20.6893C4.58244 20.6893 4.52175 20.7193 4.70383 21.3495C5.31078 23.3003 7.70822 25.3711 10.3788 26.2715L12.2603 26.9018L10.6216 27.8622C8.19378 29.2427 5.34113 30.023 2.48848 30.0831C1.12285 30.1131 0 30.2331 0 30.3232C0 30.6233 3.70237 32.304 5.85703 32.9642C12.321 34.915 19.9989 34.0747 25.7649 30.7433C29.8618 28.3724 33.9586 23.6605 35.8705 19.0986C36.9023 16.6676 37.9341 12.2258 37.9341 10.095C37.9341 8.7144 38.0252 8.53433 39.7246 6.88366C40.7261 5.92327 41.6669 4.87284 41.8489 4.57272C42.1524 4.00249 42.1221 4.00249 40.5744 4.5127C37.9948 5.41306 37.6307 5.29301 38.9053 3.94246C39.846 2.98208 40.9689 1.24137 40.9689 0.731164C40.9689 0.641127 40.5137 0.791188 39.9978 1.0613C39.4515 1.36142 38.2376 1.8116 37.3272 2.08171L35.6884 2.59192L34.2014 1.60152C33.382 1.0613 32.2288 0.461054 31.6219 0.280981C30.0742 -0.139189 27.7071 -0.0791645 26.3111 0.40103C22.5177 1.75158 20.1203 5.23299 20.3934 9.04453Z" fill="white"/>
</svg>
