<svg width="42" height="42" viewBox="0 0 42 42" fill="none" xmlns="http://www.w3.org/2000/svg">
<g clip-path="url(#clip0_7332_102636)">
<path d="M41.4145 10.9928C41.194 9.15375 39.4609 7.39025 37.6475 7.154C26.5898 5.78005 15.4081 5.78005 4.35397 7.154C2.5391 7.38974 0.805948 9.15375 0.585484 10.9928C-0.195161 17.733 -0.195161 24.2682 0.585484 31.0068C0.805948 32.8459 2.5391 34.611 4.35397 34.8456C15.4081 36.2196 26.5902 36.2196 37.6475 34.8456C39.4609 34.6114 41.194 32.8459 41.4145 31.0068C42.1952 24.2688 42.1952 17.733 41.4145 10.9928ZM17.4997 28.0011V14.0007L28 21.0011L17.4997 28.0011Z" fill="white"/>
</g>
<defs>
<clipPath id="clip0_7332_102636">
<rect width="42" height="42" fill="white"/>
</clipPath>
</defs>
</svg>
